<?xml version="1.0" encoding="UTF-8"?>
<svg width="51px" height="27px" viewBox="0 0 51 27" version="1.1" xmlns="http://www.w3.org/2000/svg" xmlns:xlink="http://www.w3.org/1999/xlink">
    <!-- Generator: Sketch 53 (72520) - https://sketchapp.com -->
    <title>Icons/Editors/Redo</title>
    <desc>Created with Sketch.</desc>
    <defs>
        <path d="M0.141278845,33.8123866 C3.2762186,22.8896896 11.0012074,15.3337533 20.3119944,14.0915642 C29.4873112,12.8425217 39.0068817,17.9860411 44.5930352,26.7893066 L44.6249105,16.1630216 C44.6312856,14.2766075 46.0577071,12.75 47.8124446,12.75 L47.8251947,12.75 C49.5831198,12.7568535 51.0063537,14.2954545 50.9999787,16.1904354 L50.9410093,34.5748337 C50.9378218,35.47949 50.5712553,36.3790062 49.9767802,37.0180911 C49.3791176,37.6606027 48.5694839,38.0221226 47.7215999,38.0221226 L47.7104435,38.0221226 L30.6077295,37.9587281 C28.8498044,37.9518746 27.4265705,36.4132735 27.4329455,34.5182927 C27.4393206,32.6318787 28.8641483,31.1052711 30.6204796,31.1052711 L30.6332297,31.1052711 L39.6093257,31.137825 C35.3954056,24.1164584 28.1023277,19.9581234 21.0961278,20.8919069 C14.3146491,21.7982766 8.61693193,27.5209131 6.23584398,35.8341564 C5.81349572,37.3059363 4.55282599,38.25 3.18856141,38.25 C2.87777684,38.25 2.56380474,38.2037392 2.24823886,38.0992239 C0.56840841,37.5406672 -0.375101674,35.6234126 0.141278845,33.8123866" id="path-1"></path>
    </defs>
    <g id="Page-1" stroke="none" stroke-width="1" fill="none" fill-rule="evenodd">
        <g id="Certifications-Overview" transform="translate(-491.000000, -2029.000000)">
            <g id="PROCESS" transform="translate(-2.000000, 1733.000000)">
                <g id="Icons/Editors/Redo" transform="translate(493.000000, 284.000000)">
                    <mask id="mask-2" fill="white">
                        <use xlink:href="#path-1"></use>
                    </mask>
                    <use fill="#3F5D75" fill-rule="evenodd" xlink:href="#path-1"></use>
                    <g id="Colors/App/Icon" mask="url(#mask-2)" fill="#7C98B6" fill-rule="evenodd">
                        <g id="Colors/Dark-Greys/Eerie">
                            <polygon id="Rectangle-3-Copy-36" points="0 0 51 0 51 51 0 51"></polygon>
                        </g>
                    </g>
                </g>
            </g>
        </g>
    </g>
</svg>